<svg width="95" height="90" viewBox="0 0 95 90" fill="none" xmlns="http://www.w3.org/2000/svg">
<g filter="url(#filter0_di_100_492)">
<path fill-rule="evenodd" clip-rule="evenodd" d="M14.6875 46.5C14.6875 55.2024 18.1445 63.5484 24.2981 69.7019C30.4516 75.8555 38.7976 79.3125 47.5 79.3125C56.2024 79.3125 64.5484 75.8555 70.7019 69.7019C76.8555 63.5484 80.3125 55.2024 80.3125 46.5C80.3125 37.7976 76.8555 29.4516 70.7019 23.2981C64.5484 17.1445 56.2024 13.6875 47.5 13.6875C38.7976 13.6875 30.4516 17.1445 24.2981 23.2981C18.1445 29.4516 14.6875 37.7976 14.6875 46.5ZM85 46.5C85 56.4456 81.0491 65.9839 74.0165 73.0165C66.9839 80.0491 57.4456 84 47.5 84C37.5544 84 28.0161 80.0491 20.9835 73.0165C13.9509 65.9839 10 56.4456 10 46.5C10 36.5544 13.9509 27.0161 20.9835 19.9835C28.0161 12.9509 37.5544 9 47.5 9C57.4456 9 66.9839 12.9509 74.0165 19.9835C81.0491 27.0161 85 36.5544 85 46.5ZM49.8438 30.0938C49.8438 29.4721 49.5968 28.876 49.1573 28.4365C48.7177 27.9969 48.1216 27.75 47.5 27.75C46.8784 27.75 46.2823 27.9969 45.8427 28.4365C45.4032 28.876 45.1562 29.4721 45.1562 30.0938V57.2484L35.0969 47.1844C34.6568 46.7443 34.0599 46.497 33.4375 46.497C32.8151 46.497 32.2182 46.7443 31.7781 47.1844C31.338 47.6245 31.0908 48.2214 31.0908 48.8438C31.0908 49.4661 31.338 50.063 31.7781 50.5031L45.8406 64.5656C46.0583 64.7839 46.317 64.9571 46.6017 65.0752C46.8865 65.1934 47.1917 65.2542 47.5 65.2542C47.8083 65.2542 48.1135 65.1934 48.3983 65.0752C48.683 64.9571 48.9417 64.7839 49.1594 64.5656L63.2219 50.5031C63.662 50.063 63.9092 49.4661 63.9092 48.8438C63.9092 48.2214 63.662 47.6245 63.2219 47.1844C62.7818 46.7443 62.1849 46.497 61.5625 46.497C60.9401 46.497 60.3432 46.7443 59.9031 47.1844L49.8438 57.2484V30.0938Z" fill="black"/>
<path d="M44.8026 57.6019L45.6562 58.4559V57.2484V30.0938C45.6562 29.6048 45.8505 29.1358 46.1963 28.79C46.542 28.4443 47.011 28.25 47.5 28.25C47.989 28.25 48.458 28.4443 48.8037 28.79C49.1495 29.1358 49.3438 29.6048 49.3438 30.0938V57.2484V58.4559L50.1974 57.6019L60.2567 47.5379C60.2567 47.5379 60.2567 47.5379 60.2568 47.5378C60.6031 47.1916 61.0728 46.997 61.5625 46.997C62.0523 46.997 62.522 47.1916 62.8683 47.5379C63.2146 47.8843 63.4092 48.354 63.4092 48.8438C63.4092 49.3335 63.2146 49.8032 62.8683 50.1496L48.8058 64.2121L48.8054 64.2125C48.6341 64.3842 48.4306 64.5204 48.2066 64.6134C47.9827 64.7063 47.7425 64.7542 47.5 64.7542C47.2575 64.7542 47.0173 64.7063 46.7934 64.6134C46.5694 64.5204 46.3659 64.3842 46.1946 64.2125L46.1942 64.2121L32.1317 50.1496C31.7854 49.8032 31.5908 49.3335 31.5908 48.8438C31.5908 48.354 31.7854 47.8843 32.1317 47.5379C32.478 47.1916 32.9477 46.997 33.4375 46.997C33.9272 46.997 34.3969 47.1916 34.7432 47.5378C34.7433 47.5379 34.7433 47.5379 34.7433 47.5379L44.8026 57.6019ZM14.1875 46.5C14.1875 55.335 17.6972 63.8082 23.9445 70.0555C30.1918 76.3028 38.665 79.8125 47.5 79.8125C56.335 79.8125 64.8082 76.3028 71.0555 70.0555C77.3028 63.8082 80.8125 55.335 80.8125 46.5C80.8125 37.665 77.3028 29.1918 71.0555 22.9445C64.8082 16.6972 56.335 13.1875 47.5 13.1875C38.665 13.1875 30.1918 16.6972 23.9445 22.9445C17.6972 29.1918 14.1875 37.665 14.1875 46.5ZM84.5 46.5C84.5 56.313 80.6018 65.7241 73.663 72.663C66.7241 79.6018 57.313 83.5 47.5 83.5C37.687 83.5 28.2759 79.6018 21.337 72.663C14.3982 65.7241 10.5 56.313 10.5 46.5C10.5 36.687 14.3982 27.2759 21.337 20.337C28.2759 13.3982 37.687 9.5 47.5 9.5C57.313 9.5 66.7241 13.3982 73.663 20.337C80.6018 27.2759 84.5 36.687 84.5 46.5Z" stroke="black"/>
</g>
<defs>
<filter id="filter0_di_100_492" x="0" y="-1" width="95" height="95" filterUnits="userSpaceOnUse" color-interpolation-filters="sRGB">
<feFlood flood-opacity="0" result="BackgroundImageFix"/>
<feColorMatrix in="SourceAlpha" type="matrix" values="0 0 0 0 0 0 0 0 0 0 0 0 0 0 0 0 0 0 127 0" result="hardAlpha"/>
<feOffset/>
<feGaussianBlur stdDeviation="5"/>
<feComposite in2="hardAlpha" operator="out"/>
<feColorMatrix type="matrix" values="0 0 0 0 1 0 0 0 0 1 0 0 0 0 1 0 0 0 1 0"/>
<feBlend mode="normal" in2="BackgroundImageFix" result="effect1_dropShadow_100_492"/>
<feBlend mode="normal" in="SourceGraphic" in2="effect1_dropShadow_100_492" result="shape"/>
<feColorMatrix in="SourceAlpha" type="matrix" values="0 0 0 0 0 0 0 0 0 0 0 0 0 0 0 0 0 0 127 0" result="hardAlpha"/>
<feOffset/>
<feGaussianBlur stdDeviation="15"/>
<feComposite in2="hardAlpha" operator="arithmetic" k2="-1" k3="1"/>
<feColorMatrix type="matrix" values="0 0 0 0 0.929412 0 0 0 0 0.913725 0 0 0 0 0.815686 0 0 0 1 0"/>
<feBlend mode="normal" in2="shape" result="effect2_innerShadow_100_492"/>
</filter>
</defs>
</svg>
